<?xml version="1.0" encoding="UTF-8"?>
<svg xmlns="http://www.w3.org/2000/svg" xmlns:xlink="http://www.w3.org/1999/xlink" width="70pt" height="70pt" viewBox="0 0 70 70" version="1.1">
<g id="surface1">
<path style=" stroke:none;fill-rule:nonzero;fill:rgb(14.901961%,30.196078%,89.411765%);fill-opacity:1;" d="M 34.957031 69.824219 L 6.46875 64.214844 L 0.121094 13.722656 L 69.878906 13.722656 L 63.523438 64.207031 Z M 34.957031 69.824219 "/>
<path style=" stroke:none;fill-rule:nonzero;fill:rgb(16.078431%,39.607843%,94.509804%);fill-opacity:1;" d="M 58.082031 60.992188 L 63.511719 17.851562 L 35 17.851562 L 35 65.53125 Z M 58.082031 60.992188 "/>
<path style=" stroke:none;fill-rule:nonzero;fill:rgb(92.156863%,92.156863%,92.156863%);fill-opacity:1;" d="M 14.675781 36.578125 L 15.457031 42.769531 L 35 42.769531 L 35 36.578125 Z M 14.675781 36.578125 "/>
<path style=" stroke:none;fill-rule:nonzero;fill:rgb(92.156863%,92.156863%,92.156863%);fill-opacity:1;" d="M 13.101562 24.042969 L 13.894531 30.234375 L 35 30.234375 L 35 24.042969 Z M 13.101562 24.042969 "/>
<path style=" stroke:none;fill-rule:nonzero;fill:rgb(92.156863%,92.156863%,92.156863%);fill-opacity:1;" d="M 35 52.660156 L 34.960938 52.667969 L 25.234375 50.804688 L 24.613281 45.867188 L 15.847656 45.867188 L 17.070312 55.589844 L 34.960938 59.113281 L 35 59.105469 Z M 35 52.660156 "/>
<path style=" stroke:none;fill-rule:nonzero;fill:rgb(0%,0%,0%);fill-opacity:1;" d="M 16.539062 0 L 27.117188 0 L 27.117188 3.136719 L 20.960938 3.136719 L 20.960938 6.273438 L 27.117188 6.273438 L 27.117188 9.410156 L 16.539062 9.410156 Z M 16.539062 0 "/>
<path style=" stroke:none;fill-rule:nonzero;fill:rgb(0%,0%,0%);fill-opacity:1;" d="M 29.230469 0 L 39.808594 0 L 39.808594 2.726562 L 33.652344 2.726562 L 33.652344 3.273438 L 39.808594 3.273438 L 39.808594 9.546875 L 29.230469 9.546875 L 29.230469 6.683594 L 35.382812 6.683594 L 35.382812 6.136719 L 29.230469 6.136719 Z M 29.230469 0 "/>
<path style=" stroke:none;fill-rule:nonzero;fill:rgb(0%,0%,0%);fill-opacity:1;" d="M 41.921875 0 L 52.5 0 L 52.5 2.726562 L 46.347656 2.726562 L 46.347656 3.273438 L 52.5 3.273438 L 52.5 9.546875 L 41.921875 9.546875 L 41.921875 6.683594 L 48.078125 6.683594 L 48.078125 6.136719 L 41.921875 6.136719 Z M 41.921875 0 "/>
<path style=" stroke:none;fill-rule:nonzero;fill:rgb(100%,100%,100%);fill-opacity:1;" d="M 55.269531 36.578125 L 56.84375 24.042969 L 34.96875 24.042969 L 34.96875 30.234375 L 47.273438 30.234375 L 46.480469 36.578125 L 34.96875 36.578125 L 34.96875 42.769531 L 45.722656 42.769531 L 44.710938 50.800781 L 34.96875 52.667969 L 34.96875 59.109375 L 52.871094 55.589844 L 53.003906 54.542969 L 55.054688 38.242188 Z M 55.269531 36.578125 "/>
</g>
</svg>
