<?xml version="1.0" encoding="UTF-8"?>
<svg xmlns="http://www.w3.org/2000/svg" xmlns:xlink="http://www.w3.org/1999/xlink" width="70pt" height="70pt" viewBox="0 0 70 70" version="1.1">
<defs>
<clipPath id="clip1">
  <path d="M 24 51 L 46 51 L 46 61 L 24 61 Z M 24 51 "/>
</clipPath>
<clipPath id="clip2">
  <path d="M 26.824219 66 C 27.261719 68.019531 28.328125 69.207031 29.394531 69.90625 L 40.632812 69.90625 C 42 68.992188 43.394531 67.265625 43.394531 64.035156 L 43.394531 55.691406 C 43.394531 55.691406 43.558594 53.617188 45.5 52.945312 C 45.5 52.945312 46.621094 52.164062 45.417969 51.734375 C 45.417969 51.734375 40.085938 51.300781 40.085938 55.609375 L 40.085938 61.964844 C 40.085938 61.964844 40.304688 64.304688 39.046875 65.273438 L 39.046875 57.414062 C 39.046875 57.414062 39.128906 54.910156 40.441406 53.96875 C 40.441406 53.96875 41.316406 52.433594 39.402344 52.835938 C 39.402344 52.835938 35.738281 53.347656 35.574219 57.574219 L 35.492188 65.652344 L 34.617188 65.652344 L 34.535156 57.574219 C 34.371094 53.375 30.707031 52.835938 30.707031 52.835938 C 28.792969 52.40625 29.667969 53.96875 29.667969 53.96875 C 30.980469 54.910156 31.0625 57.414062 31.0625 57.414062 L 31.0625 65.355469 C 29.804688 64.46875 30.023438 61.964844 30.023438 61.964844 L 30.023438 55.609375 C 30.023438 51.300781 24.691406 51.734375 24.691406 51.734375 C 23.460938 52.164062 24.609375 52.945312 24.609375 52.945312 C 26.523438 53.644531 26.714844 55.691406 26.714844 55.691406 L 26.714844 61.53125 Z M 26.824219 66 "/>
</clipPath>
</defs>
<g id="surface1">
<path style=" stroke:none;fill-rule:nonzero;fill:rgb(61.960784%,86.27451%,94.901961%);fill-opacity:1;" d="M 54.933594 53.886719 C 54.933594 57.628906 46.128906 60.644531 35.273438 60.644531 C 24.417969 60.644531 15.613281 57.601562 15.613281 53.886719 C 15.613281 50.144531 24.417969 47.128906 35.273438 47.128906 C 46.128906 47.128906 54.933594 50.144531 54.933594 53.886719 Z M 54.933594 53.886719 "/>
<g clip-path="url(#clip1)" clip-rule="nonzero">
<g clip-path="url(#clip2)" clip-rule="nonzero">
<path style=" stroke:none;fill-rule:nonzero;fill:rgb(49.019608%,73.72549%,90.588235%);fill-opacity:1;" d="M 54.933594 53.886719 C 54.933594 57.628906 46.128906 60.644531 35.273438 60.644531 C 24.417969 60.644531 15.613281 57.601562 15.613281 53.886719 C 15.613281 50.144531 24.417969 47.128906 35.273438 47.128906 C 46.128906 47.128906 54.933594 50.144531 54.933594 53.886719 Z M 54.933594 53.886719 "/>
</g>
</g>
<path style=" stroke:none;fill-rule:nonzero;fill:rgb(61.960784%,86.27451%,94.901961%);fill-opacity:1;" d="M 12.824219 33.992188 L 12.25 35.929688 C 12.25 35.929688 12.113281 36.628906 12.769531 36.761719 C 13.480469 36.738281 13.425781 36.089844 13.371094 35.902344 Z M 12.824219 33.992188 "/>
<path style=" stroke:none;fill-rule:nonzero;fill:rgb(0.392157%,0.392157%,0.392157%);fill-opacity:1;" d="M 69.945312 25.832031 L 70 25.589844 C 64.230469 24.460938 58.324219 24.433594 54.742188 24.59375 C 55.316406 22.519531 55.507812 20.097656 55.507812 17.433594 C 55.507812 13.582031 54.03125 10.511719 51.679688 8.199219 C 52.089844 6.878906 52.636719 3.945312 51.132812 0.203125 C 51.132812 0.203125 48.453125 -0.632812 42.355469 3.378906 C 39.976562 2.785156 37.433594 2.492188 34.890625 2.492188 C 32.101562 2.492188 29.285156 2.839844 26.632812 3.539062 C 20.34375 -0.6875 17.582031 0.175781 17.582031 0.175781 C 15.777344 4.617188 16.898438 7.929688 17.226562 8.738281 C 15.09375 11 13.808594 13.878906 13.808594 17.40625 C 13.808594 20.070312 14.109375 22.46875 14.875 24.539062 C 11.265625 24.40625 5.578125 24.460938 0 25.5625 L 0.0546875 25.804688 C 5.632812 24.703125 11.375 24.675781 14.957031 24.808594 C 15.121094 25.242188 15.3125 25.671875 15.503906 26.074219 C 11.949219 26.183594 5.90625 26.640625 0.109375 28.253906 L 0.191406 28.5 C 6.042969 26.882812 12.140625 26.453125 15.667969 26.34375 C 17.800781 30.222656 21.957031 32.75 29.394531 33.53125 C 28.328125 34.234375 27.261719 35.417969 26.824219 37.4375 C 25.375 38.109375 20.835938 39.777344 18.101562 35.148438 C 18.101562 35.148438 16.570312 32.402344 13.644531 32.1875 C 13.644531 32.1875 10.800781 32.132812 13.453125 33.9375 C 13.453125 33.9375 15.339844 34.824219 16.652344 38.136719 C 16.652344 38.136719 18.375 43.789062 26.605469 41.960938 L 26.605469 47.75 C 26.605469 47.75 26.441406 49.820312 24.5 50.496094 C 24.5 50.496094 23.351562 51.273438 24.582031 51.707031 C 24.582031 51.707031 29.914062 52.136719 29.914062 47.828125 L 29.914062 41.476562 C 29.914062 41.476562 29.695312 38.945312 30.953125 38.082031 L 30.953125 48.527344 C 30.953125 48.527344 30.871094 51.03125 29.558594 51.976562 C 29.558594 51.976562 28.683594 53.507812 30.597656 53.105469 C 30.597656 53.105469 34.261719 52.59375 34.425781 48.367188 L 34.507812 37.785156 L 35.382812 37.785156 L 35.464844 48.367188 C 35.628906 52.566406 39.292969 53.105469 39.292969 53.105469 C 41.207031 53.535156 40.332031 51.976562 40.332031 51.976562 C 39.019531 51.03125 38.9375 48.527344 38.9375 48.527344 L 38.9375 38.164062 C 40.195312 39.132812 39.976562 41.476562 39.976562 41.476562 L 39.976562 47.828125 C 39.976562 52.136719 45.308594 51.707031 45.308594 51.707031 C 46.539062 51.273438 45.390625 50.496094 45.390625 50.496094 C 43.476562 49.792969 43.285156 47.75 43.285156 47.75 L 43.285156 39.402344 C 43.285156 36.144531 41.890625 34.421875 40.523438 33.53125 C 48.453125 32.75 52.253906 30.25 54.003906 26.316406 C 57.476562 26.398438 63.738281 26.828125 69.699219 28.5 L 69.78125 28.253906 C 63.847656 26.613281 57.640625 26.183594 54.113281 26.074219 C 54.277344 25.671875 54.414062 25.265625 54.550781 24.835938 C 58.214844 24.703125 64.148438 24.703125 69.945312 25.832031 Z M 69.945312 25.832031 "/>
<path style=" stroke:none;fill-rule:nonzero;fill:rgb(96.078431%,80%,70.196078%);fill-opacity:1;" d="M 47.742188 17.246094 C 49.4375 18.777344 50.449219 20.609375 50.449219 22.574219 C 50.449219 31.835938 43.449219 32.078125 34.808594 32.078125 C 26.167969 32.078125 19.167969 30.785156 19.167969 22.574219 C 19.167969 20.609375 20.152344 18.777344 21.847656 17.269531 C 24.664062 14.742188 29.421875 16.085938 34.808594 16.085938 C 40.195312 16.085938 44.925781 14.714844 47.742188 17.246094 Z M 47.742188 17.246094 "/>
<path style=" stroke:none;fill-rule:nonzero;fill:rgb(100%,100%,100%);fill-opacity:1;" d="M 29.613281 23.058594 C 29.613281 25.617188 28.164062 27.664062 26.359375 27.664062 C 24.554688 27.664062 23.105469 25.589844 23.105469 23.058594 C 23.105469 20.5 24.554688 18.457031 26.359375 18.457031 C 28.164062 18.429688 29.613281 20.5 29.613281 23.058594 Z M 29.613281 23.058594 "/>
<path style=" stroke:none;fill-rule:nonzero;fill:rgb(68.627451%,36.078431%,31.764706%);fill-opacity:1;" d="M 28.574219 23.113281 C 28.574219 24.808594 27.589844 26.183594 26.414062 26.183594 C 25.210938 26.183594 24.253906 24.808594 24.253906 23.113281 C 24.253906 21.417969 25.238281 20.042969 26.414062 20.042969 C 27.589844 20.042969 28.574219 21.417969 28.574219 23.113281 Z M 28.574219 23.113281 "/>
<path style=" stroke:none;fill-rule:nonzero;fill:rgb(100%,100%,100%);fill-opacity:1;" d="M 47.085938 23.058594 C 47.085938 25.617188 45.636719 27.664062 43.832031 27.664062 C 42.027344 27.664062 40.578125 25.589844 40.578125 23.058594 C 40.578125 20.5 42.027344 18.457031 43.832031 18.457031 C 45.609375 18.429688 47.085938 20.5 47.085938 23.058594 Z M 47.085938 23.058594 "/>
<path style=" stroke:none;fill-rule:nonzero;fill:rgb(68.627451%,36.078431%,31.764706%);fill-opacity:1;" d="M 46.019531 23.113281 C 46.019531 24.808594 45.035156 26.183594 43.859375 26.183594 C 42.65625 26.183594 41.699219 24.808594 41.699219 23.113281 C 41.699219 21.417969 42.683594 20.042969 43.859375 20.042969 C 45.0625 20.042969 46.019531 21.417969 46.019531 23.113281 Z M 46.019531 23.113281 "/>
<path style=" stroke:none;fill-rule:nonzero;fill:rgb(68.627451%,36.078431%,31.764706%);fill-opacity:1;" d="M 35.683594 27.152344 C 35.683594 27.582031 35.328125 27.960938 34.863281 27.960938 C 34.425781 27.960938 34.042969 27.609375 34.042969 27.152344 C 34.042969 26.695312 34.398438 26.34375 34.863281 26.34375 C 35.300781 26.34375 35.683594 26.695312 35.683594 27.152344 Z M 35.683594 27.152344 "/>
<path style=" stroke:none;fill-rule:nonzero;fill:rgb(68.627451%,36.078431%,31.764706%);fill-opacity:1;" d="M 32.976562 29.171875 C 32.921875 29.035156 33.003906 28.902344 33.140625 28.847656 C 33.277344 28.792969 33.414062 28.875 33.46875 29.007812 C 33.6875 29.601562 34.234375 29.980469 34.863281 29.980469 C 35.492188 29.980469 36.039062 29.574219 36.257812 29.007812 C 36.3125 28.875 36.449219 28.792969 36.585938 28.847656 C 36.722656 28.902344 36.804688 29.035156 36.75 29.171875 C 36.476562 29.953125 35.710938 30.492188 34.863281 30.492188 C 34.015625 30.492188 33.25 29.953125 32.976562 29.171875 Z M 32.976562 29.171875 "/>
<path style=" stroke:none;fill-rule:nonzero;fill:rgb(76.862745%,89.803922%,85.098039%);fill-opacity:1;" d="M 14.902344 32.832031 C 14.902344 33.046875 14.65625 33.210938 14.328125 33.210938 C 14.027344 33.210938 13.753906 33.046875 13.753906 32.832031 C 13.753906 32.617188 14 32.457031 14.328125 32.457031 C 14.65625 32.457031 14.902344 32.617188 14.902344 32.832031 Z M 14.902344 32.832031 "/>
<path style=" stroke:none;fill-rule:nonzero;fill:rgb(76.862745%,89.803922%,85.098039%);fill-opacity:1;" d="M 16.488281 33.695312 C 16.488281 33.910156 16.242188 34.070312 15.914062 34.070312 C 15.613281 34.070312 15.339844 33.910156 15.339844 33.695312 C 15.339844 33.480469 15.585938 33.316406 15.914062 33.316406 C 16.242188 33.316406 16.488281 33.480469 16.488281 33.695312 Z M 16.488281 33.695312 "/>
<path style=" stroke:none;fill-rule:nonzero;fill:rgb(76.862745%,89.803922%,85.098039%);fill-opacity:1;" d="M 17.445312 34.824219 C 17.445312 35.039062 17.199219 35.203125 16.871094 35.203125 C 16.570312 35.203125 16.296875 35.039062 16.296875 34.824219 C 16.296875 34.609375 16.542969 34.449219 16.871094 34.449219 C 17.199219 34.421875 17.445312 34.609375 17.445312 34.824219 Z M 17.445312 34.824219 "/>
<path style=" stroke:none;fill-rule:nonzero;fill:rgb(76.862745%,89.803922%,85.098039%);fill-opacity:1;" d="M 18.320312 36.117188 C 18.320312 36.332031 18.074219 36.496094 17.746094 36.496094 C 17.445312 36.496094 17.171875 36.332031 17.171875 36.117188 C 17.171875 35.902344 17.417969 35.742188 17.746094 35.742188 C 18.074219 35.714844 18.320312 35.902344 18.320312 36.117188 Z M 18.320312 36.117188 "/>
<path style=" stroke:none;fill-rule:nonzero;fill:rgb(76.862745%,89.803922%,85.098039%);fill-opacity:1;" d="M 19.277344 37.300781 C 19.277344 37.515625 19.03125 37.679688 18.703125 37.679688 C 18.402344 37.679688 18.128906 37.515625 18.128906 37.300781 C 18.128906 37.085938 18.375 36.925781 18.703125 36.925781 C 19.03125 36.925781 19.277344 37.085938 19.277344 37.300781 Z M 19.277344 37.300781 "/>
<path style=" stroke:none;fill-rule:nonzero;fill:rgb(76.862745%,89.803922%,85.098039%);fill-opacity:1;" d="M 20.589844 38.351562 C 20.589844 38.566406 20.34375 38.730469 20.015625 38.730469 C 19.714844 38.730469 19.441406 38.566406 19.441406 38.351562 C 19.441406 38.136719 19.6875 37.976562 20.015625 37.976562 C 20.34375 37.949219 20.589844 38.136719 20.589844 38.351562 Z M 20.589844 38.351562 "/>
<path style=" stroke:none;fill-rule:nonzero;fill:rgb(76.862745%,89.803922%,85.098039%);fill-opacity:1;" d="M 22.421875 39.023438 C 22.421875 39.242188 22.175781 39.402344 21.847656 39.402344 C 21.546875 39.402344 21.273438 39.242188 21.273438 39.023438 C 21.273438 38.808594 21.519531 38.648438 21.847656 38.648438 C 22.175781 38.648438 22.421875 38.808594 22.421875 39.023438 Z M 22.421875 39.023438 "/>
<path style=" stroke:none;fill-rule:nonzero;fill:rgb(76.862745%,89.803922%,85.098039%);fill-opacity:1;" d="M 24.253906 39.023438 C 24.253906 39.242188 24.007812 39.402344 23.679688 39.402344 C 23.378906 39.402344 23.105469 39.242188 23.105469 39.023438 C 23.105469 38.808594 23.351562 38.648438 23.679688 38.648438 C 24.007812 38.648438 24.253906 38.808594 24.253906 39.023438 Z M 24.253906 39.023438 "/>
<path style=" stroke:none;fill-rule:nonzero;fill:rgb(76.862745%,89.803922%,85.098039%);fill-opacity:1;" d="M 26.113281 38.730469 C 26.113281 38.945312 25.867188 39.105469 25.539062 39.105469 C 25.238281 39.105469 24.964844 38.945312 24.964844 38.730469 C 24.964844 38.511719 25.210938 38.351562 25.539062 38.351562 C 25.839844 38.351562 26.113281 38.511719 26.113281 38.730469 Z M 26.113281 38.730469 "/>
</g>
</svg>
