<?xml version="1.0" encoding="UTF-8"?>
<svg xmlns="http://www.w3.org/2000/svg" xmlns:xlink="http://www.w3.org/1999/xlink" width="70pt" height="70pt" viewBox="0 0 70 70" version="1.1">
<g id="surface1">
<path style=" stroke:none;fill-rule:nonzero;fill:rgb(89.411765%,30.196078%,14.901961%);fill-opacity:1;" d="M 69.878906 13.722656 L 63.523438 64.207031 L 34.957031 69.824219 L 6.46875 64.214844 L 0.121094 13.722656 Z M 69.878906 13.722656 "/>
<path style=" stroke:none;fill-rule:nonzero;fill:rgb(94.509804%,39.607843%,16.078431%);fill-opacity:1;" d="M 35 65.53125 L 58.082031 60.992188 L 63.511719 17.851562 L 35 17.851562 Z M 35 65.53125 "/>
<path style=" stroke:none;fill-rule:nonzero;fill:rgb(92.156863%,92.156863%,92.156863%);fill-opacity:1;" d="M 22.644531 30.234375 L 35 30.234375 L 35 24.042969 L 13.101562 24.042969 L 13.3125 25.703125 L 15.457031 42.769531 L 35 42.769531 L 35 36.578125 L 23.445312 36.578125 Z M 22.644531 30.234375 "/>
<path style=" stroke:none;fill-rule:nonzero;fill:rgb(92.156863%,92.156863%,92.156863%);fill-opacity:1;" d="M 24.613281 45.867188 L 15.847656 45.867188 L 17.070312 55.589844 L 34.960938 59.113281 L 35 59.105469 L 35 52.660156 L 34.960938 52.667969 L 25.234375 50.804688 Z M 24.613281 45.867188 "/>
<path style=" stroke:none;fill-rule:nonzero;fill:rgb(0%,0%,0%);fill-opacity:1;" d="M 6.613281 0 L 11.050781 0 L 11.050781 3.109375 L 15.109375 3.109375 L 15.109375 0 L 19.546875 0 L 19.546875 9.414062 L 15.109375 9.414062 L 15.109375 6.261719 L 11.050781 6.261719 L 11.050781 9.414062 L 6.613281 9.414062 Z M 6.613281 0 "/>
<path style=" stroke:none;fill-rule:nonzero;fill:rgb(0%,0%,0%);fill-opacity:1;" d="M 25.382812 3.121094 L 21.476562 3.121094 L 21.476562 0 L 33.730469 0 L 33.730469 3.121094 L 29.820312 3.121094 L 29.820312 9.414062 L 25.382812 9.414062 Z M 25.382812 3.121094 "/>
<path style=" stroke:none;fill-rule:nonzero;fill:rgb(0%,0%,0%);fill-opacity:1;" d="M 35.675781 0 L 40.300781 0 L 43.148438 3.308594 L 45.992188 0 L 50.621094 0 L 50.621094 9.414062 L 46.203125 9.414062 L 46.203125 4.75 L 43.148438 8.097656 L 43.074219 8.097656 L 40.015625 4.75 L 40.015625 9.414062 L 35.675781 9.414062 Z M 35.675781 0 "/>
<path style=" stroke:none;fill-rule:nonzero;fill:rgb(0%,0%,0%);fill-opacity:1;" d="M 52.832031 0 L 57.269531 0 L 57.269531 6.304688 L 63.511719 6.304688 L 63.511719 9.414062 L 52.832031 9.414062 Z M 52.832031 0 "/>
<path style=" stroke:none;fill-rule:nonzero;fill:rgb(100%,100%,100%);fill-opacity:1;" d="M 34.96875 42.769531 L 45.722656 42.769531 L 44.710938 50.800781 L 34.96875 52.667969 L 34.96875 59.109375 L 52.871094 55.589844 L 53.003906 54.542969 L 55.054688 38.242188 L 55.269531 36.578125 L 34.96875 36.578125 Z M 34.96875 42.769531 "/>
<path style=" stroke:none;fill-rule:nonzero;fill:rgb(100%,100%,100%);fill-opacity:1;" d="M 34.96875 30.222656 L 34.96875 30.234375 L 56.0625 30.234375 L 56.238281 28.84375 L 56.636719 25.703125 L 56.84375 24.042969 L 34.96875 24.042969 Z M 34.96875 30.222656 "/>
</g>
</svg>
